<?xml version="1.0" encoding="UTF-8"?><svg id="a" xmlns="http://www.w3.org/2000/svg" viewBox="0 0 800 600.7"><path d="M300.01,385.08c-1.07,2.77-2.15,5.54-3.25,8.38-5.64-11.03-7.83-22.52-5.66-34.79-3.59,2.98-7.72,11.5-7.8,17.44-.09,6.56,.45,13.13,.72,19.73-4.12-12.66-8.35-25.4-12.41-38.19-4.14-13.05-5.48-26.46-4.57-40.13-6.72,15.22-9.5,30.77-4.75,47.25-1.93-4.71-4.05-9.36-5.73-14.15-1.75-4.97-3.41-10.01-4.49-15.15-1.08-5.15-1.8-10.45-1.94-15.71-.14-5.24,.64-10.51,1.06-16.34-6.38,6.58-10.81,14.05-14.71,21.93,.99-16.74,4.87-32.56,14.03-46.88-8.55,6.27-14.8,14.32-18.99,24.04,3.06-19.21,9.14-40.56,27.91-58.25-6.4,1.51-13.43,7.43-22.81,19.24-1.66-23.27,.34-45.48,16.9-64.24-2.83,2.08-5.83,3.96-8.45,6.28-2.67,2.36-4.96,5.15-7.67,8.03-.27-.95-.44-1.21-.38-1.36,2.99-6.54,.31-12.12-2.25-18.17-5.3-12.55-7.43-26-9.36-39.43-2.18-15.22,.64-29.8,4.71-44.43,1.97-7.07,1.84-14.74,2.49-22.16,1.33-15.33,2.88-30.62,7.25-45.45,.91-3.09,2.12-6.14,3.6-9,3.58-6.92,8.69-8.56,15.12-4.17,5.22,3.57,10.13,7.8,14.51,12.37,7.67,7.99,14.9,16.4,22.17,24.76,1.99,2.29,3.52,2.55,6.63,1.63,6.25-1.85,12.82-3,19.33-3.48,3.46-.25,5.17-1.24,7.01-4.08,8.08-12.51,16.45-24.84,24.84-37.15,1.19-1.75,2.9-3.24,4.61-4.53,5.19-3.92,10.26-2.52,11.91,3.83,1.43,5.53,2.18,11.34,2.41,17.06,.46,11.56,.3,23.13,.58,34.7,.03,1.41,.8,3.32,1.88,4.11,21.08,15.55,32.55,36.96,37.33,62.14,1.39,7.34,1.44,15.09,1.04,22.59-.67,12.51-8.07,21.24-17.8,28.29-.85,.62-1.69,1.25-2.75,2.03,7.53,9.1,17.26,14.26,28.2,17.3,4.25,1.18,8.7,1.68,13.1,2.26,4.94,.64,6.22,1.7,7.67,6.45,.27,.89,1.46,1.8,2.42,2.14,71.81,25.29,117.09,75.73,139.24,147.66,6.92,22.48,8.85,45.76,7.15,69.28-.13,1.78-.02,3.58-.02,6.13,12.03-12.77,17.6-27.93,21.27-45.2,1.22,5.82,2.32,10.61,3.19,15.44,.89,4.96,1.65,9.95,2.29,14.96,1.52,11.9,.57,23.48-4.25,34.65-4.87,11.29-11.87,20.84-21.89,28.09-.55,.4-1.03,.9-2.06,1.82,10.71-1.49,19.3-5.92,27.23-12.62-6.1,16.72-23.19,46.98-59.63,59.55,17.32,0,34.65-.22,51.96,.06,17.45,.29,34.88,1.09,52.32,1.66,.01,.39,.02,.78,.03,1.17-4.32,.44-8.63,.99-12.96,1.29-8.41,.58-16.82,1.14-25.24,1.49-79.84,3.28-159.71,5.38-239.63,4.93-27.6-.15-55.2-.71-82.79-1.36-10.34-.24-20.68-1.11-31-1.96-8.15-.67-13.96-9.42-11.15-17.32,3.81-10.69,13.87-21.48,31.5-18.69,6.17,.98,12.43,1.49,18.66,1.9,5.78,.39,8.78-2.51,9.35-8.37,.58-5.99-.93-11.62-2.38-17.36-1.61-6.35-3.41-12.94-3.25-19.38,.39-15.59-2.46-30.54-6.02-45.57-1.65-6.95-1.32-14.35-2.14-21.52-.66-5.81-1.7-11.58-2.57-17.36-.3-.03-.6-.06-.89-.09Zm17.61-250.07c3.9,5.49,8.81,9.1,14.3,11.93,2.3,1.19,4.86,2.18,7.4,2.54,4.15,.59,13.09-5.83,14.38-9.98,.22-.7,.14-1.76-.26-2.33-2.83-4.12-5.43-8.47-8.79-12.12-2.86-3.1-6.94-3.55-11-1.95-6.3,2.49-11.14,6.93-16.04,11.91Zm77.02,341.3c-1.31,12.77-4.75,24.66-13.88,33.12,9.61-1.08,19.61-2.19,28.98-3.24-2.83-4.17-6.53-8.63-9.09-13.67-2.57-5.04-4-10.66-6-16.21Zm4.3-346.27c0-.89,.07-1.85-.01-2.81-.74-8.68-6.64-14.15-14.19-13.17-2.87,.37-5.1,1.82-4.37,4.9,1.31,5.53,2.65,11.15,4.93,16.31,2.19,4.97,5.39,5.35,10.28,2.81,3.42-1.78,3.64-4.73,3.37-8.04Zm19.21,256.74c5.14-9.24,11.99-16.78,21-22.31,8.82-5.42,18.61-7.95,28.75-9.48-24.82-1.19-46.06,9.96-49.75,31.79Zm-133.59-177.06c8.86-5.52,18.26-12.23,28.41-17.46,10.19-5.25,21.14-9.04,30.17-12.81-16.22,.13-51.07,17.98-58.58,30.27Zm-1.41-36.27c18.99-1.2,38.51-2.44,56.83-3.6-18.56-2.52-38.12-2.05-56.83,3.6Zm57.6,20.43c-16.65,10.49-30.82,23.27-39.25,41.4,11.46-15.35,24.26-29.44,39.25-41.4Zm10.25,.64c-10.23,8.47-18.65,18.57-22.71,31.18,7.43-10.21,15.15-20.8,22.71-31.18Zm47.62,224.58c-1.26,12-6.45,22.75-10.9,33.73,8.11-9.81,12.63-20.77,10.9-33.73Z"/><path d="M462.99,199.11c-14.19-8.74-29.07-15.96-44.91-21.13,17.07,2.55,31.72,10.29,44.91,21.13Z"/><path d="M426.74,152.18c9.69-6.98,20.81-12.07,32.27-13.39-10.28,4.26-21.56,8.94-32.27,13.39Z"/><path d="M456.34,172.84c-10.83-2.01-21.81-4.04-31.47-5.84,10.18-1.09,21.17,.82,31.47,5.84Z"/><path d="M442.04,200.12c-9.16-5.55-17.52-10.62-26.79-16.24,11.09,2.65,18.76,8.97,26.79,16.24Z"/><path d="M406.9,83.3c6.19-8.81,13.95-15.27,24.15-20.4-8.49,7.17-16.2,13.69-24.15,20.4Z"/><path d="M411,55.01c-1.3,7.03-9.48,20.29-15.34,24.72,5.11-8.24,10.26-16.54,15.34-24.72Z"/><path d="M340.75,143.63c-5.86-2.56-9.72-12.71-7.2-18.33,1.01-2.26,2.21-2.15,3.79-.54,3.64,3.68,5.55,13.66,3.4,18.88Z"/><path d="M389.25,132.8c-5.26-2.7-8.6-9.3-7.61-14.73,.47-2.56,2.1-3.26,3.96-1.71,3.62,3.03,5.63,11.75,3.65,16.44Z"/></svg>