<?xml version="1.0" encoding="UTF-8"?><svg id="a" xmlns="http://www.w3.org/2000/svg" viewBox="0 0 800 600.7"><path d="M638.66,297.94c-1.14,54.41-17.5,103.55-50.06,147-34.83,46.48-80.67,76.91-136.96,91.38-24.83,6.38-50.15,8.67-75.69,7.19-52.29-3.03-99.63-19.99-140.55-52.94-46.65-37.56-76.74-85.64-88.89-144.58-4.66-22.61-5.94-45.46-3.86-68.4,4.51-49.61,21.84-94.24,53.59-132.82,36.46-44.3,82.75-72.99,138.81-85.7,24.03-5.45,48.36-7.52,72.92-5.66,38.24,2.9,74.08,13.87,107.28,33.16,42.18,24.51,74.38,58.58,96.75,101.89,12.03,23.29,19.8,48.01,23.23,74,1.55,11.77,2.3,23.66,3.41,35.49Zm-158.31-78.29c0,2.07,.31,3.87-.07,5.5-.67,2.9,.04,5.31,1.48,7.78,1.56,2.68,2.99,5.46,4.2,8.32,1.12,2.66,.47,5.06-1.6,7.21-1.4,1.45-2.72,3.09-3.61,4.88-3.17,6.33-8.06,9.98-15.14,10.97-2.19,.31-4.81,1.13-6.22,2.65-4.55,4.9-6.82,10.68-5.58,17.66,1.52,8.54,.77,16.84-3.44,24.7-1.49,2.78-2.95,5.99-3.03,9.04-.22,7.67-3.2,14-8.01,19.61-7.4,8.64-11.95,18.32-12.29,29.88-.35,11.9-1.24,23.78-1.31,35.68-.03,5.09,1.06,10.28,2.3,15.25,1.67,6.69,2.96,7.44,9.76,7.66,3.71,.12,6.8,1.36,8.1,5.05,.66,1.88,1.69,2.23,3.43,2.22,17.67-.03,35.34,.02,53.02-.05,1.16,0,2.53-.44,3.46-1.14,10.74-8.07,20.32-17.36,28.61-27.94,22.92-29.23,36.16-62.3,38.64-99.43,1.06-15.81-.07-31.57-3.36-47.13-8.59-40.61-28.8-74.43-60.18-101.39-29.97-25.75-64.9-40.24-104.32-43.69-19.98-1.75-39.72-.23-59.18,4.64-39.8,9.96-72.57,31.1-98.35,62.87-25.1,30.94-38.47,66.51-40.04,106.34-1.13,28.83,4.5,56.39,16.99,82.44,3.11,6.49,6.93,12.64,10.42,18.95,.64-.81,.65-1.29,.58-1.77-2.48-15.63-1.47-31.12,2.45-46.38,5.9-22.97,17.4-42.34,36.67-56.78,18.83-14.11,40.48-19.81,63.39-21.96,7.65-.72,15.12-1.4,20.31-8.34,3.57-4.77,8.69-7.75,14-10.32,2.89-1.39,5.78-2.79,8.7-4.12,3.46-1.58,5.63-4.19,7.22-7.65,1.49-3.23,3.34-6.4,5.58-9.15,3.07-3.78,5.3-7.82,6.67-12.5,.89-3.04,2.43-5.9,3.75-8.81,1.16-2.56,2.45-5.05,3.61-7.6,3.01-6.62,5.63-13.46,9.09-19.84,2.66-4.9,7.24-4.93,11.04-.75,.97,1.07,1.86,2.29,2.5,3.58,1.84,3.75,3.47,7.61,5.31,11.36,.47,.96,1.37,2.32,2.18,2.39,4.23,.39,8.4,.92,11.81-3.02,5.04-5.83,10.52-11.27,15.84-16.85,.8-.84,1.76-1.54,3.29-2.86-.21,2.97-.28,5-.51,7.01-.64,5.6-1.78,11.19-1.88,16.8-.08,4.4,.35,9.29,4.12,12.36,5.24,4.28,8.93,9.44,11.04,15.97l-1.44,.69Zm-87.93,173.69c-2.02,2.35-3.98,4.5-5.76,6.79-.74,.95-1.55,2.22-1.52,3.32,.13,6.36,1.23,12.56,4.16,18.29,1.28,2.51,3.16,4.03,6.3,3.62,3.56-.46,6.41,1.11,8.77,3.71,.45,.49,.99,.91,1.79,1.65-1.55-13.92-7.65-25.57-13.73-37.38Zm60.38-169.61c-3.24-.33-5.77-.59-8.3-.85,2.9,3.17,4.74,3.35,8.3,.85Z"/></svg>