<?xml version="1.0" encoding="UTF-8"?><svg id="a" xmlns="http://www.w3.org/2000/svg" viewBox="0 0 800 600.7"><path d="M428.15,71.92c5.01,9.33,9.46,17.66,13.95,25.96,3.13,5.78,5.95,6.25,10.48,1.61,6.25-6.41,12.38-12.94,18.56-19.42,.98-1.02,1.93-2.07,3.59-2.75-1.44,10.58-2.88,21.15-4.35,31.91,12.96,5.47,21.26,15.62,28.06,27.29,2.33,4.01,4.84,7.77,9.37,9.74,3.24,1.4,2.42,3.9,1.16,6.28-1.38,2.61-2.45,5.51-4.32,7.73-2.9,3.44-5.94,7.11-9.69,9.41-5.2,3.18-11.12,5.22-16.75,7.68-7.58,3.32-14.1,7.69-16.47,16.26-1.62,5.84-1.48,11.62,.83,17.36-.8-9.62-.06-18.76,7.56-25.98-3.29,7.28-1.17,14.13,1.93,20.61,6.18,12.91,8.58,26.41,7.36,40.61-1.36,15.89-5.06,31.2-11.5,45.94,.19-17.53-.64-34.7-13.47-49.08,0,.8-.12,1.2,.02,1.45,11.91,21.1,11.1,42.67,2.33,64.5-2.74,6.81-5.68,13.55-8.37,20.38-.9,2.28-1.31,4.76-2.05,7.56-6.67-7.02-8.17-15.78-8.85-25.54-2.15,9.51,1.52,22.38,8.99,29.61,5.55,5.37,11.67,10.25,17.98,14.72,14.96,10.62,23.16,25.19,25.83,43.01,2.33,15.57,.68,30.9-4.28,45.89,.56-4.23,1.34-8.45,1.65-12.7,1.51-20.56-2.36-39.85-14.92-56.59-9.52-12.69-22.92-18.33-38.44-16.29-35.61,4.66-61.59,23.93-77.61,55.66-12.39,24.54-6.84,54.01,12.09,73.83,.58,.61,1.24,1.14,1.5,1.38-3.02-6.81-6.94-13.7-9.19-21.09-7.88-25.85-1.48-48.73,15.95-68.81,12.35-14.23,26.94-25.4,45.12-31.28,7.48-2.42,15.23-3.41,22.94-1.63,14.89,3.43,23.53,14.08,28.65,27.46,8.95,23.35,4.6,45.08-9.6,65.25-4.14,5.89-8.39,11.8-11.7,18.16-5.76,11.07,.21,14.98,9.76,15.78,4.84,.4,9.75,0,14.61,.2,1.76,.07,3.84,.44,5.12,1.48,1.22,.99,2.34,3.15,2.12,4.57-.22,1.38-2.04,2.77-3.47,3.63-1.01,.61-2.55,.38-3.85,.46-9.8,.58-19.62,.93-29.41,1.76-12.69,1.07-23.73-3.51-34.26-9.64-28.77-16.74-32.98-55.98-8.58-78.77,.47-.44,1.05-.77,1.58-1.16l-.61-.81c-1.53,1.06-3.15,2.01-4.57,3.19-12.69,10.54-17.4,24.4-15.99,40.4,2.73,31.04,26.5,52.6,57.59,57.02,21.29,3.02,42.03,1.32,61.8-7.24,29.09-12.6,45.4-35.63,51.74-66.08,3.22-15.42,3.2-30.86-3.21-45.67-3.09-7.13-7.53-13.27-14.58-17.07-12.64-6.81-24.7,.18-25.01,14.47-.04,1.78,0,3.57-.23,5.34-3.49-9.69-4.36-19.36,1.74-28.41,5.44-8.07,15.36-10.48,26.16-6.66,11.59,4.1,19.67,12.43,26.03,22.54,19.75,31.38,20.75,79.17-2.36,110.7-13.15,17.94-30.95,28.33-52.44,32.99-30.09,6.52-60.43,7.77-91.04,4.91-26.58-2.49-52.42-7.81-76.4-19.95-33.18-16.79-56.78-42.02-67.14-78.4-4.85-17.04-5.43-34.45-3.78-52.01,3.65-38.79,18.19-73.22,40.82-104.7,15.06-20.94,32.94-38.88,53.15-54.73,9.16-7.19,17.03-15.68,22.74-25.97,3.63-6.54,5.84-13.46,5.73-21.03-.29-18.88,5.36-36.09,13.98-52.69,2.96-5.7,4.01-12.39,6.04-18.6,3.81-11.68,7.69-23.34,11.84-35.93Zm-41.9,202.61c1.58,.55,2.49,1,3.46,1.17,11.71,2.14,18.72,9.3,21.87,20.52,3.34,11.88,2.8,23.9,1.04,35.93-.77,5.27-1.78,10.5-2.83,16.66,.66-1.16,.91-1.46,1.02-1.81,4.96-15.66,7.86-31.59,5.34-48.06-2.52-16.44-13.34-25.4-29.9-24.41Zm-56.28,160.11c.26-24.5,6.38-47,23.31-66.81-19.37,14.57-26.94,42.04-23.31,66.81Zm56.11-206.13c-24.33,6.3-42.43,21.84-58.96,39.69,17.73-16.08,37.01-29.86,58.96-39.69Z"/><path d="M360.82,534.12c-14.81-4.24-29.8-7.95-44.39-12.83-21.41-7.17-40.84-17.94-56.46-34.7-16.38-17.58-25.83-38.42-28.61-62.21-4.18-35.74,5.6-68.71,20.89-100.36,8.16-16.89,17.4-33.26,26-49.94,5.83-11.32,11.02-22.91,13.36-35.56,3.18-17.16,.3-32.61-11.99-45.93,2.45,2.54,5.19,4.86,7.29,7.67,6.32,8.47,8.33,18.24,7.96,28.64-.47,13.27-4.79,25.47-10.52,37.21-8.46,17.33-17.48,34.4-25.7,51.84-8.41,17.84-15.15,36.31-18.11,55.96-5.13,34.07,1.98,65.03,23.56,92.26,20.13,25.4,46.19,43.04,75.04,56.95,7.25,3.49,14.67,6.63,22.01,9.93l-.33,1.08Z"/><path d="M254.81,498.1c-34.28-31.46-39.62-70.73-30.13-113.93-6.25,42.3-1.52,81.65,30.13,113.93Z"/><path d="M585.8,402.11c-8.38-25.97-22.78-46.08-51.06-53.2,20.19-2.12,49.77,28.76,51.06,53.2Z"/></svg>